<svg width="17" height="18" viewBox="0 0 17 18" fill="none" xmlns="http://www.w3.org/2000/svg">
<path d="M15.894 17.0561L16.0001 17.1621L16.1062 17.0561L16.6062 16.5561L16.7122 16.45L16.6062 16.3439L10.4546 10.1924C10.8259 9.7481 11.1289 9.21786 11.3651 8.60383C11.6216 7.93699 11.7501 7.25209 11.7501 6.54999C11.7501 4.97387 11.2015 3.63445 10.1061 2.54095C9.01068 1.44753 7.67095 0.899988 6.09602 0.899988C4.52101 0.899988 3.18254 1.44856 2.08982 2.54406L2.08982 2.54406C0.997215 3.63945 0.450098 4.97917 0.450098 6.55406C0.450098 8.12899 0.997652 9.46743 2.0912 10.5602C3.18472 11.6529 4.5241 12.2 6.1001 12.2C6.7522 12.2 7.41099 12.0798 8.07578 11.8412C8.69677 11.6182 9.25237 11.3058 9.74151 10.9035L15.894 17.0561ZM9.40653 9.85642C8.51065 10.7523 7.41174 11.2 6.1001 11.2C4.78846 11.2 3.68954 10.7523 2.79366 9.85642C1.89778 8.96054 1.4501 7.86163 1.4501 6.54999C1.4501 5.23835 1.89778 4.13943 2.79366 3.24355C3.68954 2.34767 4.78846 1.89999 6.1001 1.89999C7.41174 1.89999 8.51065 2.34767 9.40653 3.24355C10.3024 4.13943 10.7501 5.23835 10.7501 6.54999C10.7501 7.86163 10.3024 8.96054 9.40653 9.85642Z" fill="#707070" stroke="#707070" stroke-width="0.3"/>
</svg>
